<svg xmlns="http://www.w3.org/2000/svg" width="865.76" height="682.89" viewBox="0 0 865.76 682.89"><rect x="167.21" y="379.13" width="39.09" height="16.52" fill="#ebebeb"/><path d="M189,358.3l19.37-.42,9.83-.16c3.29-.07,6.6,0,9.89-.07h.65v.66l.09,16.52v.74h-.71l-19.55-.09c-6.51,0-13-.18-19.54-.25h-.42v-.4c0-2.8.12-5.59.2-8.34Zm0,0,.21,8.34c0,2.76.16,5.47.19,8.18l-.4-.4c6.51-.08,13-.24,19.54-.25l19.58-.09-.74.74V358.3l.74.72c-3.22,0-6.44,0-9.67-.09l-9.71-.16Z" fill="#ebebeb"/><path d="M145.48,358.3l19.37-.42,9.83-.16c3.29-.07,6.58,0,9.89-.07h.65v.66l.09,16.52v.74h-.74L165,375.48c-6.53,0-13-.18-19.55-.25h-.41v-.4c0-2.8.13-5.59.19-8.34Zm0,0,.21,8.34c0,2.76.16,5.47.19,8.18l-.4-.4c6.51-.08,13-.24,19.55-.25l19.54-.09-.74.74V358.3l.67.66c-3.24,0-6.44,0-9.67-.09l-9.72-.16Z" fill="#ebebeb"/><path d="M746.68,51.89l-19.36.41-9.83.16c-3.3.08-6.6,0-9.89.09H707v-.66l-.09-16.52v-.74h.74l19.54.1c6.52,0,13,.17,19.54.24h.42v.4c0,2.8-.13,5.59-.19,8.35Zm0,0-.2-8.34c0-2.75-.16-5.47-.19-8.18l.39.41c-6.51,0-13,.24-19.54.24l-19.54.09.73-.74-.07,16.52-.66-.65h9.66l9.72.17Z" fill="#ebebeb"/><rect x="729.4" y="56.2" width="39.09" height="16.52" fill="#ebebeb"/><path d="M184.51,52l-19.38.39-9.83.18H144.76V34.7h.72l19.55.09c6.51,0,13,.16,19.54.24h.4v.4c0,2.79-.13,5.58-.19,8.34Zm0,0-.22-8.36c0-2.75-.16-5.46-.19-8.16l.41.4c-6.52.07-13,.23-19.54.23l-19.49,0,.72-.74L146.07,52l-.59-.73c3.22,0,6.42,0,9.66.09l9.71.16Z" fill="#ebebeb"/><rect x="420.15" y="139.6" width="39.09" height="16.52" fill="#ebebeb"/><path d="M729.4,364.47l19.38-.42,9.83-.16c3.29-.07,6.59,0,9.88-.09h.66v.67l.08,16.52v.73h-.8l-19.55-.08c-6.51,0-13-.18-19.54-.26h-.4V381c0-2.81.13-5.6.19-8.34Zm0,0,.22,8.34c0,2.76.16,5.47.19,8.18l-.41-.4c6.52-.08,13-.24,19.54-.25l19.55-.09-.73.74.08-16.52.65.66c-3.22,0-6.42,0-9.66-.09l-9.71-.16Z" fill="#ebebeb"/><rect x="473.81" y="501.71" width="39.09" height="16.52" fill="#ebebeb"/><path d="M441.94,118.77l19.44-.37,9.83-.16h10.54v.67l.08,16.51v.74h-.74l-19.54-.09c-6.53,0-13-.16-19.55-.25h-.41v-.4c0-2.8.13-5.59.19-8.34Zm0,0,.22,8.36c0,2.74.17,5.46.2,8.16l-.4-.4c6.51,0,13-.23,19.54-.23l19.55-.11-.74.74.07-16.52.67.67c-3.24,0-6.44,0-9.67-.09l-9.72-.16Z" fill="#ebebeb"/><polygon points="246.63 502.21 197.09 502.21 168.75 360.87 214.09 340.02 246.63 502.21" fill="#dbdbdb"/><polygon points="388.43 502.21 246.63 502.21 214.09 340.02 355.9 340.02 388.43 502.21" fill="#ebebeb"/><rect x="145.27" y="426.38" width="75.92" height="155.78" fill="#dbdbdb"/><polygon points="424.86 582.16 404.12 582.16 373.21 426.38 424.86 426.38 424.86 582.16" fill="#dbdbdb"/><rect x="221.19" y="426.38" width="41.72" height="155.78" fill="#ebebeb"/><rect x="424.86" y="426.38" width="41.72" height="155.78" fill="#ebebeb"/><rect x="262.91" y="502.21" width="161.95" height="79.94" fill="#ebebeb"/><rect x="262.91" y="467.65" width="161.95" height="34.88" fill="#ebebeb"/><path d="M231.42,426.38l15.76-.28,15.73-.21h.47v.49l.2,18.26v18.23c0,12.15.08,24.3,0,36.46s0,24.3-.21,36.46-.27,24.3-.53,36.46q-.39-18.24-.52-36.46c-.16-12.16-.18-24.31-.22-36.46s0-24.31,0-36.46V444.64l.18-18.23.47.47L247,426.69Z" fill="#dbdbdb"/><path d="M424.86,426.38c.33,12.19.48,24.38.61,36.59l.18,36.6-.18,36.59-.22,18.31-.39,18.29-.38-18.29-.22-18.31-.18-36.59.18-36.6C424.39,450.76,424.48,438.57,424.86,426.38Z" fill="#dbdbdb"/><path d="M424.86,502.21c-13.49.32-27,.47-40.49.6l-40.48.18-40.46-.18-20.24-.22-20.28-.38,20.25-.38,20.24-.23,40.49-.17,40.48.17C397.91,501.74,411.37,501.88,424.86,502.21Z" fill="#dbdbdb"/><path d="M424.86,467.65c-13.49.33-27,.47-40.49.61l-40.48.17-40.46-.17L283.19,468l-20.25-.39,20.25-.38,20.24-.22,40.49-.18,40.48.18C397.91,467.18,411.37,467.33,424.86,467.65Z" fill="#dbdbdb"/><polygon points="174.13 582.14 173.1 594.77 170.71 623.93 159.71 623.93 157.32 594.77 156.29 582.14 174.13 582.14" fill="#c7c7c7"/><polygon points="156.29 582.14 174.13 582.14 173.1 594.77 157.32 594.77 156.29 582.14" fill="#a6a6a6"/><polygon points="250.98 582.14 249.95 594.77 247.56 623.93 236.56 623.93 234.17 594.77 233.14 582.14 250.98 582.14" fill="#c7c7c7"/><polygon points="233.14 582.14 250.98 582.14 249.95 594.77 234.17 594.77 233.14 582.14" fill="#a6a6a6"/><polygon points="378.44 582.14 377.42 594.77 375.03 623.93 364.03 623.93 361.64 594.77 360.61 582.14 378.44 582.14" fill="#c7c7c7"/><polygon points="360.61 582.14 378.44 582.14 377.42 594.77 361.64 594.77 360.61 582.14" fill="#a6a6a6"/><polygon points="455.32 582.14 454.28 594.77 451.89 623.93 440.89 623.93 438.5 594.77 437.47 582.14 455.32 582.14" fill="#c7c7c7"/><polygon points="455.32 582.14 454.28 594.77 438.5 594.77 437.47 582.14 455.32 582.14" fill="#a6a6a6"/><rect x="175.4" y="127.2" width="253.39" height="10.88" fill="#ebebeb"/><polygon points="212.25 180.91 202.37 180.91 198.42 138.08 212.25 138.08 212.25 180.91" fill="#ebebeb"/><polygon points="391.94 180.91 401.82 180.91 405.78 138.08 391.94 138.08 391.94 180.91" fill="#ebebeb"/><polygon points="198.42 138.08 212.23 138.08 212.23 152.83 199.78 152.83 198.42 138.08" fill="#dbdbdb"/><polygon points="405.78 138.08 404.42 152.83 391.94 152.83 391.94 138.08 405.78 138.08" fill="#dbdbdb"/><path d="M267.16,61.94c-11.25,15.22-23,32.84-25.82,52a.26.26,0,0,0,.25.26.25.25,0,0,0,.24-.17,114,114,0,0,1,5-15.28c7.38-2,14.64-3.7,18.52-11s3.46-17.37,2.7-25.59C268,61.66,267.38,61.64,267.16,61.94Z" fill="#ebebeb"/><path d="M246.92,98.59a125.92,125.92,0,0,1,19.77-32m.09.09a136.1,136.1,0,0,0-13.54,21.23C257,84.1,261,80.7,264.56,76.7c0,0,.18,0,.12.12-3.5,4.19-7.38,8.75-11.81,11.81-1.22,2.26-2.46,4.53-3.72,6.79.31-.18.64-.33.95-.49m0,.09-1,.52c-.59,1.06-1.18,2.14-1.79,3.2-.11.3-.45.09-.34-.15Z" fill="#a6a6a6"/><path d="M250.67,94.64a67.6,67.6,0,0,0,8.64-5.76s.18,0,.1.1a46.21,46.21,0,0,1-8.62,5.91.14.14,0,0,1-.18-.07.12.12,0,0,1,.06-.18Z" fill="#a6a6a6"/><path d="M240.1,113.75c0,.24.42.22.42,0,0-6.29,0-12.6.1-18.92,1.61-3.25,5.06-5,7.47-7.66a33.37,33.37,0,0,0,4.43-6.25,45,45,0,0,0,5.2-17.34c.66-6.73-1.89-28.92-4.73-28.15-1.47.4-6.23,11.39-7.48,15a103.3,103.3,0,0,0-4.43,18.43C238.79,83.67,239,98.86,240.1,113.75Z" fill="#ebebeb"/><path d="M240.06,86.62h0a141.83,141.83,0,0,1,3.82-23.71c1.8-8.32,3.92-16.15,8.2-23.62,0-.14.28,0,.2.12A87.62,87.62,0,0,0,245.7,57.5c.29-.45.63-.87.93-1.3.12-.17.4,0,.28.16a11.29,11.29,0,0,1-1.33,1.89h0c-1.48,5.9-2.54,12-3.44,18.08l.21-.23h.09l-.36.6c-.46,3.07-.88,6.14-1.31,9.18a43,43,0,0,0,12.8-17h0a35.28,35.28,0,0,1-12.95,17.61c-.1.82-.22,1.64-.34,2.46,0,.17-.29.12-.29,0V86.77A.15.15,0,0,1,240.06,86.62Z" fill="#a6a6a6"/><path d="M242.64,75.09A124.48,124.48,0,0,0,253.8,55.9H254a61.86,61.86,0,0,1-11,19.35.16.16,0,0,1-.22.06A.17.17,0,0,1,242.64,75.09Z" fill="#a6a6a6"/><path d="M248.21,54.32c1.74-3.07,3.56-6,5.19-9.18,0-.09.17,0,.14.07a47.39,47.39,0,0,1-5.07,9.27.16.16,0,0,1-.23,0A.16.16,0,0,1,248.21,54.32Z" fill="#a6a6a6"/><path d="M237,97.63a63,63,0,0,1-1.47,12.4,11.1,11.1,0,0,0,.19,1.36A59.87,59.87,0,0,0,238,97.57a.45.45,0,0,0,0-.42h0a91.63,91.63,0,0,0-1.39-18.71c-1.95-11.56-6.2-22.66-14.26-31.31a.59.59,0,0,0-.83.08.36.36,0,0,0-.07.1c-3.25,8.27-2.11,18.14.67,26.39a47.73,47.73,0,0,0,6.39,12.54C231.26,90.1,234.79,93.4,237,97.63Z" fill="#ebebeb"/><path d="M223.29,51c7.65,12.4,13,27.08,13.61,41.73,0,.26-.43.34-.47.07-.18-1.31-.37-2.63-.59-3.93h0a50.43,50.43,0,0,1-8.67-10s0-.15.12,0A108.77,108.77,0,0,0,235.71,88c-.56-3.23-1.21-6.42-2-9.57-.2-.22-.4-.47-.6-.71s.09-.38.22-.22l.19.21a108.42,108.42,0,0,0-4-12.68A38.88,38.88,0,0,1,224,57.88s0-.13.1,0a57.55,57.55,0,0,0,3.55,4.68c.5.59,1.07,1.15,1.6,1.73a98.15,98.15,0,0,0-6.25-13,.19.19,0,1,1,.29-.26Z" fill="#a6a6a6"/><path d="M224.84,66.28c2.47,3.32,5.29,6.49,7.57,9.92,0,.1,0,.21-.16.13a51.34,51.34,0,0,1-7.57-10C224.6,66.26,224.77,66.18,224.84,66.28Z" fill="#a6a6a6"/><path d="M232.77,77l.1.11s0,.18-.12.11l-.1-.12C232.58,77.07,232.69,76.91,232.77,77Z" fill="#a6a6a6"/><path d="M210.15,71.68a37.83,37.83,0,0,0,8.06,18.91,20.07,20.07,0,0,0,6.53,5.11c2.83,1.4,5.8,3,8.72,4.16a58.11,58.11,0,0,1,3.1,11c.09-.32.18-.65.28-1-1.89-16.15-12.32-30-25.7-38.81a.65.65,0,0,0-.89.2A.66.66,0,0,0,210.15,71.68Z" fill="#ebebeb"/><path d="M214.76,76.45c-.09,0,0-.25.15-.18a55,55,0,0,1,17,21c.1.23-.21.42-.33.2-.62-1.08-1.25-2.14-1.9-3.19h0a18.34,18.34,0,0,1-8.21-4.77m.09-.09a18.87,18.87,0,0,0,3.85,2.72,33.17,33.17,0,0,0,3.88,1.47c-1.13-1.8-2.3-3.52-3.54-5.19a35.38,35.38,0,0,1-9.17-5.15.1.1,0,0,1,0-.13.1.1,0,0,1,.09,0,91.92,91.92,0,0,0,8.5,4.63,78.41,78.41,0,0,0-6-7c-1-.55-2.1-1.11-3.1-1.68a.09.09,0,0,1-.05-.12.07.07,0,0,1,.05,0,11,11,0,0,1,2.36,1.16,46.83,46.83,0,0,0-3.69-3.6Z" fill="#a6a6a6"/><path d="M215.05,82a4.87,4.87,0,0,1,.52.37v.09a4.07,4.07,0,0,1-.53-.31.09.09,0,0,1,0-.13Z" fill="#a6a6a6"/><polygon points="253.27 127.2 225.74 127.2 227.1 109.16 227.62 103.27 251.15 103.27 251.68 109.16 253.27 127.2" fill="#dbdbdb"/><polygon points="251.68 109.16 227.1 109.16 227.62 103.27 251.15 103.27 251.68 109.16" fill="#c7c7c7"/><rect x="225.74" y="98.45" width="27.28" height="6.04" fill="#dbdbdb"/><rect x="303.64" y="61.66" width="16.5" height="65.51" fill="#c7c7c7"/><rect x="303.65" y="58.15" width="16.5" height="7.2" fill="#dbdbdb"/><rect x="303.64" y="74.56" width="16.5" height="2.67" fill="#dbdbdb"/><rect x="303.64" y="111.36" width="16.5" height="7.2" fill="#dbdbdb"/><rect x="320.14" y="50.75" width="11.53" height="76.42" fill="#dbdbdb"/><rect x="322.4" y="57.92" width="6.92" height="29.39" fill="#ebebeb"/><rect x="376.78" y="57.92" width="11.53" height="76.42" transform="translate(45.24 300.6) rotate(-45.33)" fill="#c7c7c7"/><rect x="383.09" y="85.34" width="6.92" height="29.39" transform="translate(43.66 304.61) rotate(-45.33)" fill="#dbdbdb"/><rect x="331.69" y="69.13" width="19.57" height="58.04" fill="#a6a6a6"/><rect x="331.67" y="115.61" width="19.57" height="5.4" fill="#c7c7c7"/><rect x="331.69" y="109.96" width="19.57" height="2.1" fill="#c7c7c7"/><rect x="260.27" y="93.54" width="54.5" height="13.51" transform="translate(82.96 325.87) rotate(-67.03)" fill="#a6a6a6"/><rect x="276.77" y="110.14" width="5.08" height="13.52" transform="translate(61.72 327.46) rotate(-66.77)" fill="#c7c7c7"/><rect x="289.57" y="80.33" width="5.08" height="13.52" transform="translate(96.86 321.17) rotate(-66.77)" fill="#c7c7c7"/><rect x="288.36" y="86.77" width="1.98" height="13.52" transform="translate(89.28 322.54) rotate(-66.77)" fill="#c7c7c7"/><rect x="569.6" y="445.51" width="144.36" height="178.43" fill="#ebebeb"/><rect x="562.61" y="438.1" width="158.33" height="7.41" fill="#dbdbdb"/><rect x="720.95" y="438.1" width="49.79" height="7.41" fill="#ebebeb"/><rect x="713.96" y="445.51" width="48.91" height="178.43" fill="#dbdbdb"/><path d="M698.41,528.35H585.15v-64H698.41ZM585.52,528H698V464.69H585.52Z" fill="#c7c7c7"/><rect x="625.98" y="483.03" width="22.05" height="12.68" fill="#c7c7c7"/><path d="M654.76,494.93H632.31V483.8h22.45Zm-22.14-.37h21.69V484.23H632.62Z" fill="#c7c7c7"/><path d="M698.41,608.78H585.15v-64H698.41Zm-112.89-.37H698v-63.3H585.52Z" fill="#c7c7c7"/><rect x="625.98" y="563.46" width="22.05" height="12.68" fill="#c7c7c7"/><path d="M654.76,575.35H632.31V564.21h22.45ZM632.62,575h21.69V564.65H632.62Z" fill="#c7c7c7"/><polygon points="724.13 624.56 731.53 624.56 679.67 350.48 661.22 350.48 724.13 624.56" fill="#000000"/><polygon points="661.22 350.48 670.53 391.01 687.33 391.01 679.68 350.52 679.67 350.48 661.22 350.48" opacity="0.2"/><polygon points="648.47 624.56 655.87 624.56 654.22 350.48 635.79 350.48 648.47 624.56" fill="#000000"/><polygon points="635.79 350.48 637.66 391.01 654.47 391.01 654.22 350.52 654.22 350.48 635.79 350.48" opacity="0.2"/><polygon points="580.21 624.56 572.82 624.56 613.65 350.48 632.09 350.48 580.21 624.56" fill="#000000"/><polygon points="607.61 391.01 624.41 391.01 632.09 350.48 613.65 350.48 613.64 350.52 607.61 391.01" opacity="0.2"/><rect x="595.4" y="507.14" width="107.62" height="5.35" fill="#000000"/><ellipse cx="657.73" cy="244.11" rx="138.63" ry="98.46" transform="translate(381.44 888.99) rotate(-87.17)" fill="#4a0f3a"/><polygon points="643.09 104.28 666.2 105.71 648.6 382.44 625.48 381.01 643.09 104.28" fill="#4a0f3a"/><g opacity="0.1"><polygon points="643.09 104.28 666.2 105.71 648.6 382.44 625.48 381.01 643.09 104.28"/></g><ellipse cx="636.45" cy="242.79" rx="138.63" ry="98.46" transform="translate(362.53 866.48) rotate(-87.17)" fill="#4a0f3a"/><ellipse cx="636.45" cy="242.79" rx="108.14" ry="76.81" transform="translate(362.53 866.48) rotate(-87.17)" fill="#fff"/><ellipse cx="636.45" cy="242.79" rx="77.97" ry="55.37" transform="translate(362.53 866.48) rotate(-87.17)" fill="#4a0f3a"/><ellipse cx="636.45" cy="242.79" rx="47.47" ry="33.71" transform="translate(362.53 866.48) rotate(-87.17)" fill="#fff"/><path d="M651.4,240.11c.8,11.63-5.25,22.16-13.52,23.67s-15.6-6.61-16.39-18.18,5.25-22.17,13.51-23.69S650.6,228.47,651.4,240.11Z" fill="#4a0f3a"/><ellipse cx="636.45" cy="242.79" rx="138.63" ry="98.46" transform="translate(362.53 866.48) rotate(-87.17)" fill="#fff" opacity="0.4" style="isolation:isolate"/><path d="M528.17,536.16a361.87,361.87,0,0,0-.54-38.69,491.73,491.73,0,0,0-12.12-78.83c-3.38-14.58-7.54-28.93-11.88-43.25-.13-.44-.81-.31-.69.13,13.4,50.5,24.41,102.63,23.62,155.12-.21,14.76-1.91,29.13-3.31,43.73,0,.39.61.54.69.14C526.75,562.08,527.65,549,528.17,536.16Z" fill="#4a0f3a"/><path d="M502.94,375.58s-20.33,51.58-15.78,63.7S501.09,454,501.09,454s-12.43,17.72-3.75,34.4,28.05,15.87,29.28,34.73C526.62,523.11,527.69,444.2,502.94,375.58Z" fill="#4a0f3a"/><path d="M524.42,490.53a.66.66,0,0,0,0-.28,473.14,473.14,0,0,0-19.71-103.74c0-.09-.19,0-.16,0q6,22.62,10.67,45.49a22.46,22.46,0,0,0-9.7-5.4c-.07,0-.1.07,0,.1a25.64,25.64,0,0,1,10,6.69c.61,2.95,1.18,5.9,1.73,9-4.53-5.08-10.84-7.59-17.14-10-.09,0-.13.1,0,.13,6.57,2.67,13.09,6.11,17.55,11.81q2.33,12.84,4.07,25.76a24.51,24.51,0,0,0-12.11-6.94c-.14,0-.23.18-.08.22a25.59,25.59,0,0,1,12.28,7.87h.09c.4,3,.78,6.07,1.14,9.09a31.67,31.67,0,0,0-8.49-5.12c-.07,0-.12.1,0,.13a29.24,29.24,0,0,1,8.5,5.64.13.13,0,0,0,.12,0c.33,2.95.67,5.79,1,8.68a41.34,41.34,0,0,0-17.23-12.31.11.11,0,1,0-.07.21,45,45,0,0,1,17,13.08.4.4,0,0,0,.42.13c.45,4.43.85,8.86,1.17,13.28,0,0,.1.08.1,0C525.1,499.64,524.86,495.08,524.42,490.53Z" fill="#3f4347"/><path d="M508.09,421.52a25.43,25.43,0,0,0-12.21-3.81.08.08,0,0,0-.07.08.07.07,0,0,0,.07.07A49.39,49.39,0,0,1,508,421.8C508.1,421.88,508.24,421.63,508.09,421.52Z" fill="#3f4347"/><path d="M510.56,476.13a25.58,25.58,0,0,0-9.17-3.15c-.12,0-.12.16,0,.18a34.73,34.73,0,0,1,9.06,3.17C510.57,476.39,510.67,476.18,510.56,476.13Z" fill="#3f4347"/><path d="M581.57,440.12a139,139,0,0,0-23.51,20.55,84.62,84.62,0,0,0-16.49,28,208.9,208.9,0,0,0-12.28,66.9,161.76,161.76,0,0,0,3.61,37.62.37.37,0,0,0,.43.28.35.35,0,0,0,.28-.42,210.38,210.38,0,0,1,.37-65.74c3.49-21.35,9-44.56,22.53-61.9,7.38-9.43,16.59-16.86,25.7-24.54C582.68,440.43,582.08,439.77,581.57,440.12Z" fill="#4a0f3a"/><path d="M532.24,540.18a126.61,126.61,0,0,1,17.15-21.91c10.16-10.17,18.72-17.39,20.05-24.11s-10.19-11.67-10.19-11.67,14.07,2.52,17.91-3.38,5.71-40.1,5.71-40.1-25.53,18.28-37.48,43.89S532.24,540.18,532.24,540.18Z" fill="#4a0f3a"/><path d="M574.05,447.78c-10.77,10.59-21.6,21.85-27.95,35.74a139.33,139.33,0,0,0-5.65,14.76h0c-.33,1-.67,2-1,3a.49.49,0,0,0,0,.17,289,289,0,0,0-7.27,31.59s.1.1.11,0c1.1-5.33,2.32-10.72,3.68-16.09h.15a22.26,22.26,0,0,1,6.71-1.72c.15,0,.14-.28,0-.26a24.61,24.61,0,0,0-6.64,1.21c1.24-4.84,2.58-9.67,4.1-14.44a72,72,0,0,1,15.18-2v-.09A57.89,57.89,0,0,0,540.58,501c.25-.81.53-1.62.81-2.43a75.27,75.27,0,0,1,10.1-1.71m0-.12a49.17,49.17,0,0,0-9.89,1.21c1.4-4.12,2.95-8.18,4.58-12.14a70.35,70.35,0,0,1,4.82-9.38,61.53,61.53,0,0,1,8.2-1.48c.07,0,.07-.13,0-.13a22.17,22.17,0,0,0-7.77.84q2-3.25,4.27-6.36h0c5.74-1.27,11.56-2.45,17.43-1.35.09,0,.13-.16,0-.17-5.58-1.48-11.13-.62-16.7.47.6-.81,1.22-1.61,1.86-2.39A37.56,37.56,0,0,1,569,464.15a.06.06,0,1,0,0-.11,27.6,27.6,0,0,0-10,.88c4.74-5.9,10-11.44,15.16-16.92.31-.32.13-.41-.13-.22Z" fill="#3f4347"/><path d="M573.77,471.09a24.17,24.17,0,0,0-5.1-.18.2.2,0,0,0-.13.24.17.17,0,0,0,.13.13c1.69,0,3.38-.08,5.07,0a.1.1,0,0,0,.08-.12A.18.18,0,0,0,573.77,471.09Z" fill="#3f4347"/><path d="M555.34,504.26a23.38,23.38,0,0,0-7.88,1.58V506c2.61-.62,5.24-.87,7.88-1.31a.2.2,0,0,0,.19-.2A.19.19,0,0,0,555.34,504.26Z" fill="#3f4347"/><path d="M549.82,492.81a16.37,16.37,0,0,0-3.35.29c-.1,0-.1.21,0,.21a17.07,17.07,0,0,0,3.35-.16C550,493.12,550,492.81,549.82,492.81Z" fill="#3f4347"/><path d="M457.26,476.41a116.15,116.15,0,0,1,23.79,11.2,71,71,0,0,1,19.81,18.82,176.35,176.35,0,0,1,25.48,51.3A138,138,0,0,1,532.11,589a.31.31,0,0,1-.37.23.3.3,0,0,1-.24-.23A177.66,177.66,0,0,0,516,535.87c-7.76-16.46-17.55-34-32.47-44.88-8.17-5.9-17.33-9.82-26.47-13.92C456.44,476.91,456.78,476.24,457.26,476.41Z" fill="#4a0f3a"/><path d="M520.3,546a106.15,106.15,0,0,0-18.94-13.76c-10.59-5.9-19.19-9.74-21.8-14.88s5.55-11.81,5.55-11.81-10.81,5.29-15.28,1.4-13.89-31.13-13.89-31.13,24.93,8.86,40.5,26.85S520.3,546,520.3,546Z" fill="#4a0f3a"/><path d="M519,540.37C506.48,517,489.84,495.79,467,481.81h0a115,115,0,0,1,16.68,13.06,26.52,26.52,0,0,0-13.41,2.82.09.09,0,0,0,0,.13l.07,0a36.42,36.42,0,0,1,13.79-2.33h.14c.82.77,1.61,1.55,2.41,2.33a41.08,41.08,0,0,0-7.16,1m0,.09a36.82,36.82,0,0,1,7.56-.62,154.46,154.46,0,0,1,11.81,13.36,12,12,0,0,0-5,.35.1.1,0,0,0-.05.14l.05,0a25.86,25.86,0,0,1,5.35-.07c.69.87,1.37,1.73,2.05,2.61a48.21,48.21,0,0,0-15.13,1.48v.12a60,60,0,0,1,15.54-1c.64.84,1.24,1.71,1.86,2.57a32.54,32.54,0,0,0-9,1c-.12,0-.09.21,0,.18a34.79,34.79,0,0,1,9.33-.73c2.68,3.69,5.25,7.47,7.72,11.3a8.56,8.56,0,0,0-4,.23m0,.11a18,18,0,0,1,4.27.2c2.23,3.46,4.43,7,6.43,10.47.28.25.77,0,.56-.28Z" fill="#3f4347"/><path d="M499.6,521a19,19,0,0,0-7.25.88m0,.11a56.28,56.28,0,0,1,7.21-.74c.2,0,.2-.24,0-.25Z" fill="#3f4347"/><path d="M477.84,492.42a13.78,13.78,0,0,0-3.33.19.11.11,0,0,0-.11.11.11.11,0,0,0,.11.1c1.09-.12,2.17-.07,3.27-.1a.16.16,0,0,0,.18-.12A.16.16,0,0,0,477.84,492.42Z" fill="#3f4347"/><polygon points="552.45 623.37 496.18 623.37 504.19 564.59 506.25 549.54 542.37 549.54 544.42 564.59 552.45 623.37" fill="#3f4347"/><polygon points="544.42 564.59 504.19 564.59 506.25 549.54 542.37 549.54 544.42 564.59" fill="#2e3135"/><rect x="501.08" y="544.3" width="46.46" height="12.77" fill="#3f4347"/><path d="M223.65,476.08l3.1,18.14s1.31,8.66-4.74,13.88c0,0-16.17,14.38-15.35,35.13l-.49,58.48,14.37,2,34.64-91.48a32.86,32.86,0,0,0,5.71-17.65c0-.81-2.77-24.83-2.77-24.83Z" fill="#f9b499"/><path d="M230.51,646.31s11.92,1.3,7.68-12.91L222.5,602.2s-6.37-10.13-12.25-1.47c0,0-4.48,2.45-3.55-5,0,0-3-9.29-9.72-1.57a18.42,18.42,0,0,0-3.73,17.09l4.81,17a21.93,21.93,0,0,0,16.06,15.35A106.41,106.41,0,0,0,230.51,646.31Z" fill="#4a0f3a"/><path d="M230.51,646.31s11.92,1.3,7.68-12.91L222.5,602.2s-6.37-10.13-12.25-1.47c0,0-4.48,2.45-3.55-5,0,0-3-9.29-9.72-1.57a18.42,18.42,0,0,0-3.73,17.09l4.81,17a21.93,21.93,0,0,0,16.06,15.35A106.41,106.41,0,0,0,230.51,646.31Z" opacity="0.2"/><path d="M173.33,613.47s-1-19.93-3.1-30.55c0,0-10-34.79,1-62.4,0,0,3.59-4.41,3.43-16.5l-2.78-23.2,41.33.49s-2.94,19.77-8.33,29.73c0,0-2.12,3.43-2,10.62,0,0-3.76,20.91-5.72,31.53,0,0-5.39,40.51-3.43,51.46L188.53,623l-9.81,1.63Z" fill="#f9b499"/><path d="M342.58,250.81l-1.8,12.74c0,.07,0,.13,0,.2.41,6-2.63,6.5-2.63,6.5l-8.65,2.12c-24.51,8.26-38.08,6.21-42.49,5.08a19,19,0,0,0-8.28-.33A37.65,37.65,0,0,0,266.61,282a17.51,17.51,0,0,1-4.51,2.82,23,23,0,0,1-9.24,2c-4.49.05-5.52,1.08-5.52,1.08-9.15,4.57-1.31,21.73-1.31,21.73,5.88,13.07,6.7,40.35,6.7,40.35a40.38,40.38,0,0,0,1.14,11.11c2.12,12.25.82,16.17.33,26.63,0,.26,0,.51,0,.76-.37,9.72,1.34,10.34,1.34,10.34,4.09,11.11,1.31,12.26,1.31,12.26-1.65,1.25-4,1.6-6.49,1.47a40.68,40.68,0,0,1-11.81-2.94c-7.18-3.11-7.35-1.47-7.35-1.47-1,4.34-9.46,1.59-14.1-.29A53.12,53.12,0,0,0,208,405c-21.3-4.53-34.34,0-34.34,0-6.15,2.22-10.09,2-11.42,1.88a5.08,5.08,0,0,1-.51-.08c-4.43-1-3.85-7-3.29-9.89a11,11,0,0,1,.6-2.1,9.23,9.23,0,0,0,.65-2.7,10.8,10.8,0,0,0-.72-4.8c-2-5.34,1.13-13.67,1.13-13.67,1.32-6.39,1.16-10.1.91-11.84a7.29,7.29,0,0,0-.46-1.72,6.69,6.69,0,0,1,.21-6.18,7.53,7.53,0,0,0,1.11-4.39c0-.34-.06-.66-.11-.95a7.11,7.11,0,0,0-.78-2.27,8.33,8.33,0,0,1-1-3.53l-.66-6.86c-.81-8.5-2.94-9.48-2.94-9.48,0,9-18.13,26.47-18.13,26.47-3.27,4.41-12.74,1.47-12.74,1.47a8.75,8.75,0,0,1-7.19-3.76c-3.76-4.08-2.78-16.82-2.78-16.82C115.67,321.87,118,322,118,322l10.78-37.57c12.58-18.3,23.86-16.66,23.86-16.66.65-2.45,4.24-2.78,4.24-2.78,2.78.49,3.6-1.14,3.6-1.14,4.08-8.33,13.48-10.9,13.48-10.9l49.61-8.28a8.41,8.41,0,0,1,8.79-1.24l9.47,2.28c35.94,3.6,91.16.49,91.16.49,5.79-1,8.12.52,9.05,2.07A4.28,4.28,0,0,1,342.58,250.81Z" fill="#4a0f3a"/><g opacity="0.2"><path d="M180.51,289.43h0a3.67,3.67,0,0,1-2.54-1.44l0,0c-2.07-4-6.59-6.77-6.63-6.8a30.14,30.14,0,0,1-10.21-10.29,15.63,15.63,0,0,1-2-5,.16.16,0,0,1,.14-.18.15.15,0,0,1,.18.13c0,.09,1.27,8.18,12,15.08,0,0,4.62,2.84,6.75,6.91a3.44,3.44,0,0,0,2.28,1.31h0a2.65,2.65,0,0,0,2-1.19,6.11,6.11,0,0,0,1.23-2.87c.39-2.49,1.33-6.7,3.26-7a.18.18,0,0,1,.19.14.16.16,0,0,1-.14.18c-1.24.17-2.36,2.67-3,6.69a6.4,6.4,0,0,1-1.3,3A3,3,0,0,1,180.51,289.43Z"/></g><g opacity="0.2"><path d="M202.09,280.38c-3.25,0-6.85-6-7-6.29a.18.18,0,0,1,.06-.23.16.16,0,0,1,.22.06c0,.07,3.83,6.41,6.93,6.13,1.13-.11,2.06-1.12,2.74-3l5.4-12.1a.16.16,0,0,1,.22-.08.17.17,0,0,1,.08.22l-5.39,12.09c-.73,2-1.75,3.07-3,3.19Z"/></g><g opacity="0.2"><path d="M234.43,279.23a.16.16,0,0,1-.14-.07l-4.73-7.51c-3.27-4.1-2-11.88-2-12.21a.18.18,0,0,1,.19-.14.16.16,0,0,1,.13.19c0,.08-1.25,8,1.93,12v0l4.74,7.51a.17.17,0,0,1,0,.23Z"/></g><g opacity="0.2"><path d="M240.31,258.16a.16.16,0,0,1-.12-.06.17.17,0,0,1,0-.23c.16-.14,4-3.45,14.38-3.35a28,28,0,0,0,4.58-.3c3.19-.49,8.92-1.74,11.41-4.66a.16.16,0,1,1,.25.21c-2.56,3-8.37,4.28-11.61,4.77a28.69,28.69,0,0,1-4.64.31c-10.2-.1-14.11,3.23-14.15,3.27A.15.15,0,0,1,240.31,258.16Z"/></g><g opacity="0.2"><path d="M246.85,261.75a.2.2,0,0,1-.14-.06.17.17,0,0,1,0-.23s4.38-3.14,12-2.81a.15.15,0,0,1,.15.17.17.17,0,0,1-.17.16c-7.53-.33-11.78,2.71-11.82,2.74Z"/></g><g opacity="0.2"><path d="M157.32,273.51a.15.15,0,0,1-.16-.13c-.47-3.15-4.61-5.42-4.65-5.44a.16.16,0,0,1,.15-.29c.18.1,4.33,2.37,4.82,5.68a.15.15,0,0,1-.13.18Z"/></g><g opacity="0.2"><path d="M228.39,409.11a.18.18,0,0,1-.17-.14c-3.2-17.47-10.6-41.87-10.77-42.45-3.88-9.06-4.41-14-4.42-14.08-1.45-16.61-11.16-37.48-11.26-37.69-6.15-13.76-6.22-24.47-6.22-24.57a.17.17,0,0,1,.16-.17.18.18,0,0,1,.17.17c0,.1.07,10.75,6.19,24.44.1.2,9.83,21.12,11.29,37.78,0,.05.53,5,4.39,14v0c.07.25,7.55,24.88,10.79,42.49a.17.17,0,0,1-.14.19Z"/></g><g opacity="0.2"><path d="M239.82,383.78h0a.16.16,0,0,1-.14-.18c0-.12,1.68-11.34,6.05-16.71.21-1,3-13.8,5.29-15.26a.16.16,0,0,1,.23.05.15.15,0,0,1,0,.22c-2.2,1.42-5.13,15-5.16,15.09a.09.09,0,0,1,0,.07c-4.33,5.3-6,16.47-6,16.58A.15.15,0,0,1,239.82,383.78Z"/></g><g opacity="0.2"><path d="M228.22,317a.17.17,0,0,1-.14-.08.18.18,0,0,1,.06-.23s4-2.33,2.86-9.47c0-.06-.95-6.35,3.52-8.66a.16.16,0,1,1,.15.29c-4.26,2.2-3.36,8.26-3.35,8.32,1.15,7.38-3,9.79-3,9.81Z"/></g><g opacity="0.2"><path d="M235.25,292a.16.16,0,0,1-.15-.09.16.16,0,0,1,.08-.22l4.93-2.35a14.32,14.32,0,0,1,3.88-1.22A15.81,15.81,0,0,0,249.7,286a.18.18,0,0,1,.23.06.16.16,0,0,1-.06.22,16.27,16.27,0,0,1-5.83,2.19,14,14,0,0,0-3.79,1.18L235.32,292Z"/></g><g opacity="0.2"><path d="M156.5,318.77l-.09,0c-.13-.1-1.18-1.06,1.92-6.1v0a5.74,5.74,0,0,0,.79-4.92.15.15,0,0,1,0-.13.19.19,0,0,1,.11-.07s1.52-.68,1.83-10.63a.17.17,0,0,1,.17-.16.17.17,0,0,1,.16.17c-.28,8.81-1.48,10.53-1.94,10.86a6,6,0,0,1-.87,5.08c-2.92,4.76-2,5.65-2,5.65a.18.18,0,0,1,0,.23A.17.17,0,0,1,156.5,318.77Z"/></g><g opacity="0.2"><path d="M202.41,358.14h0c-10.25-2.62-20.43-11.43-27.17-18.36a136.18,136.18,0,0,1-12.29-14.54.16.16,0,0,1,0-.23.16.16,0,0,1,.22,0,135.68,135.68,0,0,0,12.26,14.51c6.71,6.89,16.85,15.66,27,18.26a.17.17,0,0,1,.12.2A.17.17,0,0,1,202.41,358.14Z"/></g><g opacity="0.2"><path d="M192.12,360.26h0c-6.12-.43-9.16-2.07-10.64-3.37a5.06,5.06,0,0,1-1.75-2.72c-6.62-2.77-7.8-6.61-7.85-6.77a.16.16,0,1,1,.31-.09s1.21,3.88,7.75,6.59a.17.17,0,0,1,.1.14,4.54,4.54,0,0,0,1.69,2.63c1.43,1.26,4.41,2.85,10.41,3.26a.17.17,0,0,1,.15.18A.16.16,0,0,1,192.12,360.26Z"/></g><g opacity="0.2"><path d="M124.94,348.39a40.06,40.06,0,0,1-5.54-.38.17.17,0,1,1,0-.33c.1,0,10,1.59,16.23-1.78a.2.2,0,0,1,.15,0,5.35,5.35,0,0,0,4.18-.09c2.57-1.12,4.6-4.08,6.05-8.8a.16.16,0,0,1,.2-.1.15.15,0,0,1,.11.2c-1.48,4.82-3.57,7.85-6.24,9a5.59,5.59,0,0,1-4.36.12C132.49,348,128.27,348.39,124.94,348.39Z"/></g><g opacity="0.2"><path d="M145.72,332a.16.16,0,0,1-.16-.15c-.32-3.33-5.28-7.69-5.33-7.73a.16.16,0,1,1,.21-.25c.21.18,5.12,4.49,5.45,7.95a.17.17,0,0,1-.15.18Z"/></g><g opacity="0.2"><path d="M145.23,319.58a.15.15,0,0,1-.11,0,14.67,14.67,0,0,0-6-3.06.17.17,0,0,1-.12-.2.16.16,0,0,1,.2-.12,15.14,15.14,0,0,1,6.12,3.14.16.16,0,0,1,0,.23A.13.13,0,0,1,145.23,319.58Z"/></g><path d="M139.52,258.32l-30.91,11.36a2.36,2.36,0,0,1-.78.16,2.52,2.52,0,0,1-2.46-1.72.14.14,0,0,0,0-.06,2.64,2.64,0,0,1-.11-.73,2.61,2.61,0,0,1,.05-.48,2.53,2.53,0,0,1,1.74-1.92l1.2-.36,30.14-9Z" fill="#4a0f3a"/><polygon points="138.37 255.54 148.66 253.75 139.52 258.32 138.37 255.54" fill="#000000"/><path d="M108.23,264.57l-1.2.36a2.53,2.53,0,0,0-1.74,1.92h0l-8.39-6.09s-2-1.33-1.85-3a1.86,1.86,0,0,1,1.64-1.59C98.69,255.91,103.64,256.31,108.23,264.57Z" fill="#000000"/><path d="M107.83,269.84c-2.78,5.76-5.49,7.23-7,7.56A1.48,1.48,0,0,1,99,276c-.15-2.94,4.43-6.58,6.36-8a.14.14,0,0,1,0,.06A2.52,2.52,0,0,0,107.83,269.84Z" fill="#000000"/><path d="M393,257.65l-4,1.65s6.19,2,5.07,5a.47.47,0,0,1-.53.3c-1.83-.37-10.21-1.94-14.31-.87a16.05,16.05,0,0,1-3.22.54,42,42,0,0,1-13.54-1.54,14.08,14.08,0,0,0-4.92-.44l-16.73,1.44c0-.07,0-.13,0-.2l1.8-12.74a4.28,4.28,0,0,0-.59-2.51c.74-.13,4.56-.63,13,.38,0,0,6.05,1.15,10.78-2l7.52-5.55s7-4.57,11.92.16c0,0,5.88-2.61,6.86,3.76,0,0,6.7-1.63,5.56,6,0,0,9.31-2.45,10,.82,0,0,2.65,2.5-10,4.43A19.42,19.42,0,0,0,393,257.65Z" fill="#f9b499"/><line x1="385.21" y1="241.33" x2="379.66" y2="242.48" fill="none" stroke="#f7a48b" stroke-linecap="round" stroke-linejoin="round" stroke-width="2"/><line x1="392.07" y1="245.09" x2="387.5" y2="246.4" fill="none" stroke="#f7a48b" stroke-linecap="round" stroke-linejoin="round" stroke-width="2"/><line x1="397.63" y1="251.13" x2="389.95" y2="252.28" fill="none" stroke="#f7a48b" stroke-linecap="round" stroke-linejoin="round" stroke-width="2"/><path d="M382.76,258.65a14,14,0,0,1,6.21.65" fill="none" stroke="#f7a48b" stroke-linecap="round" stroke-linejoin="round" stroke-width="2"/><path d="M262.53,468.9c-1,6.2-14.21,8.82-14.21,8.82-15.2,3.43-24.84.32-24.84.32-2.61,0-3.43-5.06-3.43-5.06-2.45-.49-2,5.55-2,5.55,0,7-6.2,5.72-6.2,5.72-20.56,4.9-36.69.57-40.91-.77A1.92,1.92,0,0,1,169.7,482l-3.07-16.39c-2.28-8.17-1.47-12.25-1.47-12.25A104.37,104.37,0,0,0,163,424.79c-1.21-9.94-1.14-15.17-.8-17.89,1.33.16,5.27.34,11.42-1.88,0,0,13-4.53,34.34,0a53.12,53.12,0,0,1,9.06,2.82c4.64,1.88,13.05,4.63,14.1.29,0,0,.17-1.64,7.35,1.47a40.68,40.68,0,0,0,11.81,2.94c1.21,10.47,7,25.81,7,25.81,2.61,8.33,1.63,10.13,1.63,10.13-.49,7.51,1,11.92,1,11.92A16.29,16.29,0,0,1,262.53,468.9Z" fill="#000000"/><g opacity="0.2"><path d="M177.74,477.72a.16.16,0,0,1-.15-.12c-3.56-11.65-2.8-25.4-2.79-25.54.64-9.77-2.38-13.74-2.41-13.77a.09.09,0,0,1,0-.06c-4.05-15.07.28-31,.32-31.13a.17.17,0,0,1,.32.09c0,.16-4.35,16-.34,30.92.3.39,3.1,4.38,2.47,14,0,.14-.77,13.83,2.77,25.43a.16.16,0,0,1-.11.2Z"/></g><g opacity="0.2"><path d="M171.13,420.41a.17.17,0,0,1-.17-.16.18.18,0,0,1,.17-.17,24.58,24.58,0,0,0,9-2.15A21.86,21.86,0,0,0,192.46,403a.16.16,0,0,1,.2-.11.16.16,0,0,1,.12.2,22.16,22.16,0,0,1-12.55,15.13,25.13,25.13,0,0,1-9.1,2.18Z"/></g><g opacity="0.2"><path d="M220.05,473.14a.16.16,0,0,1-.16-.16l-.54-36.35a15.5,15.5,0,0,1,5.48-12.1L227,422.7a.16.16,0,0,1,.21.25L225,424.78a15.2,15.2,0,0,0-5.37,11.85l.55,36.35a.16.16,0,0,1-.16.16Z"/></g><g opacity="0.2"><path d="M245.37,472.65l-.09,0a.16.16,0,0,1,0-.22l5.53-7.8c0-1.23.06-5,.74-5.33.4-.22,2.19-4.32,3.68-8.08a.17.17,0,0,1,.21-.09.16.16,0,0,1,.09.21c-.52,1.32-3.16,7.92-3.83,8.26-.35.17-.57,2.77-.57,5.08a.14.14,0,0,1,0,.09l-5.55,7.84A.15.15,0,0,1,245.37,472.65Z"/></g><g opacity="0.2"><path d="M249.62,473.14l-.09,0a.16.16,0,0,1,0-.22l5.39-7.84a.16.16,0,0,1,.23-.05.17.17,0,0,1,0,.23l-5.39,7.84A.16.16,0,0,1,249.62,473.14Z"/></g><path d="M180.85,617.88s2.77,1.31.49-5.39c0,0-4.58-8.82,4.9-11.27,0,0,6.86-2.29,10,3.76,0,0,36.27,34.79,26,41.33,0,0-2.45,2.61-17.81,1.79,0,0-14.05-2.12-21.73-1.3,0,0-14.21,2.61-14.21-5.39l.49-21.57s-1-10.45,5.07-8.66C174,611.18,178.4,612.33,180.85,617.88Z" fill="#4a0f3a"/><path d="M175.46,235.45s2.94,13.56-3.11,19.61l-4.9,6.53s2.13,4.74,10.78,8.82c0,0,13.24,4.25,15.2,17.15,0,0,2,.82-.66-8.82,0,0-2.28-6,3.76-7.68,0,0,9.26-4.9,4.3-12.41L195.71,249l-11.6-18.3-7-.07Z" fill="#f9b499"/><path d="M199.32,255.72l2.33,4.57a6.84,6.84,0,0,1-1,7.29s-12.27-.88-15.13-18.46Z" fill="#f7a48b"/><rect x="181.83" y="193.47" width="43.13" height="65.02" rx="21.56" fill="#f9b499"/><path d="M196.53,218.79s-2.91,12.52-8.8,6l-9.23,9.69s-.92,6.35-6.15,3.41c0,0-14.54-19.11-10.62-32.67,0,0,.49-1.31-1-3.1,0,0-2.94-3.27.17-5.89a6,6,0,0,0,.81-4.24s-1.63-7.68,6.21-13.4c0,0,5.72-6.37,13.56-2,0,0,2.29-5.39,7.84-.33,0,0,4.41-5.88,10.62-2.45,0,0,3.43.33,3.43,5.56,0,0,6.05-.66,6.7,3.1,0,0,2.94-2.12,8.49.82,0,0,2.62.49,3.43,6.37,0,0-.65,2.78,3.27,3.27,0,0,6.05,1,4.9,7.84,0,0-1.47,8.66-11.11,3.76,0,0-12.25-1.31-15,6.37,0,0,.33,5.55-6.37,6C197.67,217,196.37,216.5,196.53,218.79Z" fill="#000000"/><g opacity="0.2"><path d="M204.38,205.74a4,4,0,0,1-2.95-1.48,2.41,2.41,0,0,0-.4-.35c-.24-.13-.49-.24-.72-.34a5,5,0,0,0-4.25.12c-4.1,2.05-6.79.89-8.34-.45-1.22-1.07-1.91-2.47-1.8-2.8a.16.16,0,0,1,.21-.1.15.15,0,0,1,.1.19,5.64,5.64,0,0,0,2.29,2.91c1.41,1,3.84,1.74,7.4,0a5.34,5.34,0,0,1,4.52-.13c.24.1.49.22.74.34a2.28,2.28,0,0,1,.48.42c.88.9,2.52,2.57,6.05.09a.16.16,0,0,1,.23,0,.16.16,0,0,1,0,.22A6.24,6.24,0,0,1,204.38,205.74Zm-18.15-5.2Z"/></g><g opacity="0.2"><path d="M170.72,186.77h-.05a.17.17,0,0,1-.11-.2,9.24,9.24,0,0,1,4.38-5.16,8.74,8.74,0,0,1,7.11.15.17.17,0,0,1,.09.22.17.17,0,0,1-.21.09,8.37,8.37,0,0,0-6.85-.16,9.12,9.12,0,0,0-4.21,5A.16.16,0,0,1,170.72,186.77Z"/></g><g opacity="0.2"><path d="M164.47,203a6.23,6.23,0,0,1-2.48-.52.17.17,0,1,1,.14-.3,5.71,5.71,0,0,0,4.07.19,5.94,5.94,0,0,0,3.22-3.53.16.16,0,0,1,.22-.09.17.17,0,0,1,.09.21,6.26,6.26,0,0,1-3.42,3.71A5.23,5.23,0,0,1,164.47,203Z"/></g><g opacity="0.2"><path d="M212.54,187.75a.15.15,0,0,1-.15-.1c-.41-1-.93-1.61-1.56-1.76a2,2,0,0,0-1.61.51.17.17,0,0,1-.12,0,.14.14,0,0,1-.12-.06c-.83-1-1.63-1.47-2.39-1.37-1.29.19-2.06,2-2.07,2a.15.15,0,0,1-.18.09.15.15,0,0,1-.13-.16c0-3.2-3.75-5-4-5.07-6.3-1.73-8.59,4.41-8.61,4.47a.16.16,0,0,1-.21.1.17.17,0,0,1-.1-.21c0-.06,2.42-6.49,9-4.67h0c.16.07,3.73,1.67,4.15,4.78a3.15,3.15,0,0,1,2-1.65,3,3,0,0,1,2.59,1.36,2.28,2.28,0,0,1,1.77-.48c.74.17,1.34.83,1.79,2a.17.17,0,0,1-.09.21Z"/></g><g opacity="0.2"><path d="M217.44,201.64l-.06,0c-2.08-.83-3.34-1.93-3.75-3.27a3.51,3.51,0,0,1,.41-2.85.15.15,0,0,1,.22,0,.15.15,0,0,1,.05.22,3.28,3.28,0,0,0-.37,2.58c.38,1.24,1.58,2.27,3.56,3.06a.17.17,0,0,1-.06.32Z"/></g><g opacity="0.2"><path d="M223.65,202.06a4.13,4.13,0,0,1-2.56-.89,6.45,6.45,0,0,1-2.34-4.76.17.17,0,0,1,.16-.17h0a.17.17,0,0,1,.16.17,6.28,6.28,0,0,0,2.22,4.51,3.84,3.84,0,0,0,3.07.75,3.66,3.66,0,0,0,2.48-1.74l.09-.17a.18.18,0,0,1,.23-.07.17.17,0,0,1,.06.23l-.1.18a4,4,0,0,1-2.7,1.89A4.08,4.08,0,0,1,223.65,202.06Z"/></g><g opacity="0.2"><path d="M192.47,216.58a7.25,7.25,0,0,1-4.68-1.63,8.32,8.32,0,0,1-2.36-3.13.16.16,0,0,1,.1-.21.17.17,0,0,1,.21.1,8,8,0,0,0,2.27,3c2.14,1.74,4.88,2,8.14.82a.16.16,0,0,1,.21.1.17.17,0,0,1-.1.21A11.13,11.13,0,0,1,192.47,216.58Z"/></g><ellipse cx="181.83" cy="227.04" rx="5.88" ry="8.74" fill="#f9b499"/><path d="M120.4,289.36l-2.94,41s2.62,7.36,12.58,6.05c0,0,11.76-1.14,8.82-13.07s-7-32.67-7-32.67,3.1-5.72,1.31-14.54a8.58,8.58,0,0,1,0-3.43s.16-2.13-1.64-2.62c0,0,8.17-9,1.31-8.16,0,0,3.43-4.58-2.45-4.09,0,0-.66-4.9-8-2,0,0-15.22,6.53-12.64,20.33a3.31,3.31,0,0,0,1,1.77C112.85,280.09,119.32,286.52,120.4,289.36Z" fill="#f9b499"/><path d="M115.34,267.47l-.08,0a.15.15,0,0,1-.06-.22,20.65,20.65,0,0,1,15.15-9.56.16.16,0,1,1,0,.32,20.36,20.36,0,0,0-14.91,9.4A.16.16,0,0,1,115.34,267.47Z" fill="#f7a48b"/><path d="M119.75,274.82a.18.18,0,0,1-.13-.06.17.17,0,0,1,0-.23s4.77-3.95,8.16-7c0,0,2.95-3.12,4.88-5.69a.16.16,0,0,1,.23,0,.16.16,0,0,1,0,.22c-1.94,2.6-4.88,5.71-4.91,5.74-3.41,3.08-8.14,7-8.19,7A.13.13,0,0,1,119.75,274.82Z" fill="#f7a48b"/><path d="M120.89,270.9a.19.19,0,0,1-.1,0,.16.16,0,0,1,0-.23c0-.06,4.75-5.93,11.14-7.73a.16.16,0,0,1,.2.11.15.15,0,0,1-.11.2c-6.29,1.77-10.93,7.56-11,7.62A.16.16,0,0,1,120.89,270.9Z" fill="#f7a48b"/><path d="M129.71,285.6a.16.16,0,0,1-.16-.16c0-3.19-2.57-8.37-2.6-8.42-1.51-3.7,4.24-6.94,4.48-7.08a.17.17,0,0,1,.22.06.17.17,0,0,1-.06.23c-.06,0-5.74,3.24-4.34,6.65.1.21,2.63,5.29,2.63,8.56A.17.17,0,0,1,129.71,285.6Z" fill="#f7a48b"/></svg>